<svg width="15" height="16" viewBox="0 0 15 16" fill="none" xmlns="http://www.w3.org/2000/svg">
<path d="M14.5605 10.8711L11.2793 9.46484C11.1914 9.43555 11.1035 9.40625 10.9863 9.40625C10.7812 9.40625 10.5762 9.52344 10.459 9.66992L8.99414 11.457C6.70898 10.373 4.89258 8.55664 3.80859 6.27148L5.5957 4.80664C5.74219 4.68945 5.85938 4.48438 5.85938 4.25C5.85938 4.16211 5.83008 4.07422 5.80078 3.98633L4.39453 0.705078C4.27734 0.441406 4.01367 0.265625 3.7207 0.265625C3.69141 0.265625 3.63281 0.294922 3.57422 0.294922L0.527344 0.998047C0.205078 1.08594 0 1.34961 0 1.67188C0 9.20117 6.06445 15.2656 13.5938 15.2656C13.916 15.2656 14.1797 15.0605 14.2676 14.7383L14.9707 11.6914C14.9707 11.6328 14.9707 11.5742 14.9707 11.5449C14.9707 11.252 14.7949 10.9883 14.5605 10.8711Z" fill="white"/>
</svg>
