<svg width="21" height="17" viewBox="0 0 21 17" fill="none" xmlns="http://www.w3.org/2000/svg">
<path d="M18.0297 4.75C18.8109 4.16406 19.5141 3.46094 20.0609 2.64062C19.3578 2.95312 18.5375 3.1875 17.7172 3.26562C18.5766 2.75781 19.2016 1.97656 19.5141 1C18.7328 1.46875 17.8344 1.82031 16.9359 2.01562C16.1547 1.19531 15.1 0.726562 13.9281 0.726562C11.6625 0.726562 9.82656 2.5625 9.82656 4.82812C9.82656 5.14062 9.86563 5.45312 9.94375 5.76562C6.54531 5.57031 3.49844 3.92969 1.46719 1.46875C1.11563 2.05469 0.920313 2.75781 0.920313 3.53906C0.920313 4.94531 1.62344 6.19531 2.75625 6.9375C2.09219 6.89844 1.42813 6.74219 0.88125 6.42969V6.46875C0.88125 8.46094 2.2875 10.1016 4.1625 10.4922C3.85 10.5703 3.45938 10.6484 3.10781 10.6484C2.83438 10.6484 2.6 10.6094 2.32656 10.5703C2.83438 12.2109 4.35781 13.3828 6.15469 13.4219C4.74844 14.5156 2.99063 15.1797 1.07656 15.1797C0.725 15.1797 0.4125 15.1406 0.1 15.1016C1.89688 16.2734 4.04531 16.9375 6.38906 16.9375C13.9281 16.9375 18.0297 10.7266 18.0297 5.29688C18.0297 5.10156 18.0297 4.94531 18.0297 4.75Z" fill="white"/>
</svg>
