<svg width="18" height="16" viewBox="0 0 18 16" fill="none" xmlns="http://www.w3.org/2000/svg">
<path d="M17.8109 3.82812C17.9281 1.5625 17.0688 0.390625 15.2719 0.351562C12.85 0.273438 11.2094 1.64062 10.35 4.45312C11.4438 3.98438 13.0063 3.86719 12.85 5.66406C12.7719 6.25 12.3813 7.14844 11.6391 8.28125C9.60781 11.5234 9.1 10.4297 8.00625 3.35938C7.69375 1.36719 6.83438 0.429688 5.46719 0.546875C4.25625 0.664062 2.34219 2.61719 0.35 4.41406L1.17031 5.46875C1.95156 4.92188 2.38125 4.64844 2.5375 4.64844C3.67031 4.64844 4.25625 7.57812 5.62344 12.6562C6.32656 14.5312 7.18594 15.4688 8.20156 15.4688C9.88125 15.4688 11.8734 13.9062 14.2563 10.8203C16.5609 7.85156 17.7328 5.54688 17.8109 3.82812Z" fill="white"/>
</svg>
