<svg width="22" height="16" viewBox="0 0 22 16" fill="none" xmlns="http://www.w3.org/2000/svg">
<path d="M21.2953 2.69531C21.0609 1.75781 20.3188 1.01562 19.4203 0.78125C17.7406 0.3125 11.1 0.3125 11.1 0.3125C11.1 0.3125 4.42031 0.3125 2.74063 0.78125C1.84219 1.01562 1.1 1.75781 0.865625 2.69531C0.396875 4.33594 0.396875 7.85156 0.396875 7.85156C0.396875 7.85156 0.396875 11.3281 0.865625 13.0078C1.1 13.9453 1.84219 14.6484 2.74063 14.8828C4.42031 15.3125 11.1 15.3125 11.1 15.3125C11.1 15.3125 17.7406 15.3125 19.4203 14.8828C20.3188 14.6484 21.0609 13.9453 21.2953 13.0078C21.7641 11.3281 21.7641 7.85156 21.7641 7.85156C21.7641 7.85156 21.7641 4.33594 21.2953 2.69531ZM8.9125 11.0156V4.6875L14.4594 7.85156L8.9125 11.0156Z" fill="white"/>
</svg>
